# xmcd
#
# Track frame offsets:
#	150
#	12940
#	26242
#	40140
#	51942
#	62550
#	73015
#	86467
#	98675
#	108982
#	125292
#	140460
#	171240
#	201007
#	217037
#	236710
#	258742
#	277610
#	293297
#	311350
#
# Disc length: 4397 seconds
#
# Revision: 4
# Processed by: cddbd v1.5.2PL0 Copyright (c) Steve Scherf et al.
# Submitted via: EasyCDDAExtractor 16.1.0.1
#
DISCID=18112b14
DTITLE=Compilation - Magic Soul
DYEAR=1996
DGENRE=Soul
TTITLE0=The Supremes - Stop In The Name Of Love
TTITLE1=Martha Reeves - Nowhere To Run
TTITLE2=Wilson Pickett - Mustang Sally
TTITLE3=Same and Dave - Soul Man
TTITLE4=Bar-keys - Soul Finger
TTITLE5=Arthur Conley - Sweet Soul Music
TTITLE6=Otis and Carla - Tramp
TTITLE7=Otis Redding - (Sittin' On) The Dock Of The Bay
TTITLE8=Aretha Franklin - Think
TTITLE9=The Temptations - Cloud Nine
TTITLE10=Lyn Collins - Think (About It)
TTITLE11=Donny Hathaway - The Ghetto
TTITLE12=Stevie Wonder - Isn't She Lovely
TTITLE13=Aretha Franklin - I Say A Little Prayer
TTITLE14=Undisputed Truth - Law Of The Land
TTITLE15=Marvin Gaye - Let's Get It On (Club Mix)
TTITLE16=Ben E King - Supernatural Thing
TTITLE17=Stevie Wonder - Pastime Paradise
TTITLE18=Barry White - I'm Gonna Love You Just A Little More Baby
TTITLE19=Diana Ross - Upside Down
EXTD=YEAR: 1996
EXTT0=
EXTT1=
EXTT2=
EXTT3=
EXTT4=
EXTT5=
EXTT6=
EXTT7=
EXTT8=
EXTT9=
EXTT10=
EXTT11=
EXTT12=
EXTT13=
EXTT14=
EXTT15=
EXTT16=
EXTT17=
EXTT18=
EXTT19=
PLAYORDER=
